<?xml version="1.0" encoding="UTF-8"?><svg id="a" xmlns="http://www.w3.org/2000/svg" viewBox="0 0 689.7 541.5"><defs><style>.b{fill:none;stroke:#000;stroke-linecap:round;stroke-linejoin:round;stroke-width:2px;}</style></defs><polyline class="b" points="352.2 115.4 352.2 116 352 116.5 345.7 120.9 344.3 123.2 342.4 128.6 342.4 129.3 342.4 129.4 342.6 129.7 353.7 137.8 354.6 138.8 355.1 140.1 355.2 141.9 355.7 142.4"/><polyline class="b" points="455.9 226.8 462.2 215.5 450.2 210.5 443.9 223.8"/><polyline class="b" points="581.3 79.4 577.9 91.4 577.8 92.9"/><polyline class="b" points="333.7 181.3 334.5 181.6 334.8 182.2 334.9 183 335.1 183.6 338.6 187.3 340.7 188.5 343.2 189.3"/><polyline class="b" points="306.4 370.7 305.9 371.3 305.7 372 305.9 372.7 306.2 373.4 306.7 374.1 307.3 374.3 308.7 374.2 308.7 373.5 309.5 371.5 309.3 371 308.5 369.7 306.4 369.7 305.7 369.4"/><line class="b" x1="584.6" y1="82.9" x2="581.3" y2="93.7"/><polyline class="b" points="343.2 167.6 340.3 168.2 337.8 169.3 335.8 171.1 334.4 173.8"/><polyline class="b" points="529.6 474.6 530.3 474.3 531.6 473.2 532.7 473.1 533.3 473.8 533.8 474.6 534 475.6 532.3 483.3 531.4 484.4 528.8 486.1 527.9 485.3 526.6 483.4 525.6 482.8"/><polyline class="b" points="360.2 98.4 360.6 99.4 360.9 99.8 369.9 105.7"/><polyline class="b" points="320.4 365.7 320.1 365.2 320 364.7 319.9 363.7 317.5 363.6 316.8 363.3 316.1 364.4 316 365.3 316.3 366.2 316.9 367.1 319.3 367.4 319.9 367 320.9 365.7 321.7 365.4"/><polyline class="b" points="514.1 468.1 513.7 468 513.6 468.1 511.8 469.7 510.8 471.7 509.8 476.1 509.7 477.6 510.3 478.9 511.4 480.2 512.9 481.1 515.2 480.2 516.1 480.3"/><polyline class="b" points="396.6 254.8 396.1 256.1 397.4 256.5 401.4 256.5 401.9 256.3 402.3 256 402.6 255.4 402.6 254.8"/><polyline class="b" points="114.3 356.9 114 358.3 114.2 358.9 114.8 359.4 115.5 359.5 116 359.2 116.9 358.4 116.5 357.4 116 356.6 115.3 356.4 114.3 356.7"/><polyline class="b" points="125 217.8 126.8 217.4 127.3 217 127.1 215.8 126.5 215.3 124.5 215.6 124.3 216.2 124.3 216.7 124.4 217.3 124.8 217.8"/><polyline class="b" points="548.1 439.3 548.1 439.8 548.3 440.1 548.7 440.3 549.2 440.3 550.3 438.5 550.2 437.9 549.9 437.4 549 436.8 548.2 437.2 547.8 437.7 547.8 438.3 548.3 439.1"/><polyline class="b" points="352.2 212.8 350.3 212.3 345.7 209.1 344.2 209.6"/><polyline class="b" points="578.8 73.4 578.8 74.4 576.3 81.4"/><polyline class="b" points="454.4 539.7 454.9 538.6 454.8 537.8 454.2 537.3 453 537.2 452.6 537.8 452.4 538.3 452.4 539.6 452.7 540 453.8 540 454.1 540.5"/><polyline class="b" points="442.9 224.3 439 232.5 439.2 232.6 439.4 232.8 439.6 233 439.6 233.3"/><polyline class="b" points="286 75.7 286.6 76.4 287.3 76.7 288 76.5 288.8 75.6 288.4 74.9 288 74.4 287.4 73.9 286.7 73.6 285.8 74.9 285.7 75.4"/><polyline class="b" points="123.5 102.7 124.7 102.4 125.1 101.6 125.3 99.6 123.7 100 123.1 100.7 123.1 101.7 123.3 102.7"/><polyline class="b" points="263.2 140.6 256.5 142.2 256.2 142.1 255.9 141.8 255.7 141.4"/><polyline class="b" points="301.9 79.7 302.2 78.9 302.2 78.2 302.2 77.4 301.9 76.7 300.4 76.9 299.6 77.3 299.4 78.1 299.7 79.4 300.2 79.7 301.2 79.4 301.7 79.7"/><polyline class="b" points="412.6 461.1 412.6 463.1 409.7 463.4 408.3 463.1 407.1 461.8"/><polyline class="b" points="271.7 94.7 272.4 94.3 272.6 93.8 272.4 93.4 271.9 92.9 271.2 92.6 270.5 92.6 269.8 92.9 269.1 93.5 270 94.8 270.5 95.3 271.2 95.7"/><polyline class="b" points="115.5 363.4 115.2 362.7 114.7 362.3 114 362.3 113.1 362.8 113 364.1 113.2 364.8 113.8 365.4 114.5 365.3 115 364.8 115.5 363.7"/><line class="b" x1="363.7" y1="96.4" x2="370.4" y2="101.4"/><polyline class="b" points="405.9 426.6 406.9 427.3 407.3 427.8 407.4 428.6 406.8 429.1 406.1 429.3 404.5 429.4 404.1 428.8 403.9 428.3 403.9 427.1"/><polyline class="b" points="398.9 140.9 398 137.1 397 136.9 395.3 135.6 394.2 135.6"/><polyline class="b" points="555.1 298.5 555.2 299 555.3 299.5 555.5 300 556 300.4 556.5 300.4 558.1 300 557.9 298.4 557.6 297.7 556.6 297.5"/><polyline class="b" points="276.2 136.9 275.9 136.5 275.5 136.4 272 137.3 270.8 137.9 269.7 138.9"/><polyline class="b" points="650.8 294.2 651.1 295.3 651.8 295.5 652.7 295.4 653.4 295.6 653.9 295 654.3 294.5 654.5 293.8 654.5 293.1 652.6 292.3 651.6 292.3 650.5 292.7"/><polyline class="b" points="137 311.5 136.8 310.7 136.7 310 136.9 309.4 137.2 308.7 142.9 310.8 143.6 311.4 144 312.2 144 318.7 136.3 318.7 136.1 317.8 136 315.2"/><polyline class="b" points="352.4 185.6 350 187.8 348.6 188.6 346.2 189 345.8 189.3 345.7 189.8"/><polyline class="b" points="110.3 358.7 109.8 357.9 109.4 357.6 108.9 357.4 108.4 357.5 108 357.9 107.5 358.6 107.6 359.3 107.9 359.8 108.7 360.4 109.4 360.3 109.8 359.9 110.3 358.9"/><polyline class="b" points="262 134.4 262.2 136.7 260.6 138.3 259.8 138.6 258.3 138.3 257.7 138.9"/><polyline class="b" points="441.4 234.5 448.1 237.9 448.9 238.6 449.5 239.6 449.7 240.7 449.3 242 448.9 242.4 447.3 243 447 242.9 446.9 242.6 446.7 242 446.6 241.3 446.9 240.8 447.4 240.5 448.1 240.5"/><polyline class="b" points="207.5 44.2 208.3 44.5 208.8 44.2 209.7 43.2 208.6 42.1 208 41.7 207.2 41.7 206.8 42.2 206.7 42.7 206.8 43.2 207 43.7"/><polyline class="b" points="268 131.4 268 134.4 269.2 134.8 270.3 134.9 271.3 134.6 272.2 133.9"/><polyline class="b" points="115 269.3 115.9 268.7 116.1 268 115.5 266.5 114.2 267 113.7 267.5 113.9 268.2 114.8 269.5"/><polyline class="b" points="527.1 467.6 526.5 466.6 521.4 464.5 520.6 464.3"/><polyline class="b" points="299 377.4 299.7 377.4 300.2 377.6 300.5 377.9 301 378.7 300.8 379.2 299.7 380.5 299.1 380 298.7 379.4 298.3 378.8 298.1 378.1 297.2 378.4"/><polyline class="b" points="153 91.4 153.1 92.7 153.3 93.2 153.8 93.7 154.4 93.6 154.8 93.2 155.5 92.3 154.8 91.1 154.4 90.8 153.8 90.7"/><polyline class="b" points="264 146.9 264 143.8 261.8 143.3 260.8 143.6 260 144.4"/><polyline class="b" points="475.4 288.5 475.2 288.1 474.5 287.4 474.3 287 473.7 287 473.2 287.3 472.3 288 472.6 289 473.2 289.4 474.6 289.5"/><polyline class="b" points="145 115.9 145.8 116.7 146.5 116.9 147.1 116.4 147.6 115.4 146.9 114.6 146.2 114.4 145.6 114.8 145 115.6"/><line class="b" x1="576.1" y1="81.9" x2="573.8" y2="88.7"/><polyline class="b" points="308.2 349.7 308.2 350.7 307.9 351.6 306.9 353.3 307.4 354.1 308 354.5 308.7 354.5 310 354.2 310.4 354.3 310.6 354.6 310.7 355.2"/><polyline class="b" points="357.2 205.8 356.5 207.6 352.8 212.7 352.4 214.1"/><polyline class="b" points="338.2 148.9 337.7 147.7 336.9 147.3 333.1 147.6 332.4 147.4 332.4 147.3 332.4 147.2 332.4 147.2 332.4 147.1 332.7 146.9"/><line class="b" x1="575.1" y1="69.4" x2="573.3" y2="75.9"/><polyline class="b" points="588.8 88.2 588 89.6 587.3 94.4"/><polyline class="b" points="409.1 265.5 408.2 264.6 406.2 261.1 404.4 261.7 401.3 263.8 399.6 264.5"/><polyline class="b" points="183.3 123.6 182.4 123.7 181.8 124 181.4 124.6 181.3 125.5 181.6 126 182.1 126.3 183.3 126.4 183.7 125.9 183.9 125.3 183.8 124.7 183.5 124.1"/><polyline class="b" points="528.8 467.1 529.2 468 530 468.7 530.5 469.5 530.4 470.8 528.1 472.3"/><polyline class="b" points="547.1 316.7 547.7 316.5 549.2 316.4 549.8 315.9 549.7 315 549.3 314.6 548.6 314.4 547.8 314.5 547.3 314.7 547 315 547.1 315.4 547.3 316"/><polyline class="b" points="147 180.3 147.3 182.2 146 182.8 145.5 182.8 145 182.4 144.8 181.8 144.8 181.2 145 180.6"/><polyline class="b" points="267.2 417.4 268.2 417.3 268.7 416.9 268.9 416.2 269 415.4 268.5 414.6 267.8 414.2 266.2 414.1"/><polyline class="b" points="386.9 465.6 386.9 466.4 387.1 467.2 387.5 467.8 388.2 468.3 389.2 468.3 389.9 467.9 390.9 466.3"/><polyline class="b" points="230.7 254.5 229.2 254.6 228.6 255 228.5 256 229.1 256.5 230.6 256.4 231.2 256.8"/><polyline class="b" points="269.2 384.4 268.6 384.4 268 384.5 267.6 384.9 267.5 385.6 267.6 386.1 268.4 386.6 268.7 386.9 269.7 386.3 269.9 385.8 270 385.1"/><polyline class="b" points="402.4 259.3 401.5 258.5 400.7 258.4 400.2 258.9 399.7 260.2 401.2 260.6 401.8 260.4 402.1 259.5"/><polyline class="b" points="75.8 426.4 76.8 425.9 77.3 425.2 77.4 424.4 77.1 423.4 76.4 423.4 75.7 423.6 74.6 424.4 74.8 424.8 74.8 425.4 75 425.9 75.6 426.1"/><polyline class="b" points="279.2 129.9 278.7 129.4 278.1 129.3 277 129.6 277 130.8 277.4 131.4 278.2 131.6 279.2 131.6"/><polyline class="b" points="271 141.1 269.9 140.6 269.2 140.9 268.2 142 268 142.9 268.5 144.9"/><polyline class="b" points="311.4 408.9 311.7 408 311.4 407.4 310.8 406.8 310.4 406.1 309.3 407.2 309 407.8 308.9 408.6"/><polyline class="b" points="454.9 227.3 454.8 228.3 454.6 228.8 448.9 238"/><polyline class="b" points="275.2 100.7 274.7 100.7 274.4 100.8 274.1 101.1 274.3 103.5 276.7 103.5 276.8 103.2 277.2 102.6 277.2 102.2 276.9 101.7 275.9 101.5 275.5 101.2"/><polyline class="b" points="105.8 373.7 106.2 373.5 107.6 373.4 107.8 372.3 107.7 371.4 107.1 370.8 105.8 370.7"/><polyline class="b" points="468.6 294.5 469.4 294.5 470 294.1 471 292.9 470 291.8 469.4 291.5 468.6 291.5"/><polyline class="b" points="291.2 393.1 290.9 394 290.2 394.3 288.6 394.7 288.8 395.7 288 398.6"/><polyline class="b" points="103.3 76.9 102.4 76.7 101.8 76.7 101.6 77.2 101.3 78.2 101.8 78.6 102.3 78.7 102.8 78.6 103.3 78.4"/><polyline class="b" points="282 77.7 280.9 78 280.5 78.7 280.5 79.5 280.8 80.6 282.7 80.6 282.9 79.7 283 79 282.8 78.3 282.2 77.7"/><polyline class="b" points="409.6 457.3 411.5 457.3 411.6 456.7 411.7 456.1 411.4 454.8 410.5 454.3 409.7 454.4 408.1 455.3"/><polyline class="b" points="136.8 238.8 137.5 238.1 137.4 237.4 137.1 236.8 137.3 236 135.8 236.6 135 237.3 134.8 238.2 135.3 239.3"/><polyline class="b" points="475.4 297.5 474.5 295.9 474.4 295.3 473.5 295.7 472.8 296.2 472.4 296.8 472.4 297.7"/><polyline class="b" points="456.6 521.5 457.6 521.3 458 521.1 458.4 520.8 458.1 519.6 457.4 519.3 455.6 519.3"/><polyline class="b" points="514.3 484.6 515 485.8 515.8 486.7 516.9 487.3 518.3 487.3 518.5 487.4 518.7 487.5 518.8 487.8 518.8 488"/><polyline class="b" points="131.3 117.4 131.1 117.9 130.1 117.9 129.7 118.2 129.6 119.1 129.6 119.9 130.1 120.5 131.3 120.6"/><polyline class="b" points="351.2 169.3 350 168.7 346.2 167.6"/><polyline class="b" points="106.8 316.2 107.1 315.5 107.3 314.9 107.3 314.2 107.1 313.5 105.9 313.5 105.3 313.7 104.8 314 104.8 314.5 104.6 315.1 104.6 315.7 105.1 316.2"/><polyline class="b" points="276.7 401.1 277.4 401.4 279 401.4 279.7 401.6 279.5 402.8 279.2 403.4 278.6 403.4 277.7 403.1"/><polyline class="b" points="73.8 406.4 73.2 406.1 73 404.8 72.5 404.4 71.7 404.5 71.2 404.9 70.5 406.3 70.9 406.7 71.4 407.1 71.9 407.1 72.6 406.9"/><line class="b" x1="571.3" y1="69.4" x2="569.8" y2="74.4"/><polyline class="b" points="300.2 443.3 299.5 443.3 299 443.5 298.7 444 298.2 445.3 298.3 445.9 298.6 446.4 299.2 446.8"/><polyline class="b" points="128 308.5 128.3 309.3 128.3 309.8 128 310.2 126.8 310.2 126.2 309.9 126 309.3 126.3 308.2"/><polyline class="b" points="254.7 147.4 254.3 147 253.7 146 253.3 145.5 252.8 146 252.2 146.5 251.7 147.1 252 148.1"/><polyline class="b" points="418.9 455.3 419.1 454.6 419.2 453.8 419.1 453.1 418.9 452.4 418.1 452.3 416.5 452.6 415.6 452.3"/><polyline class="b" points="131.3 194.8 131.5 195.6 131.3 196.2 130.6 197.4 129.9 197.6 129.2 197.6 128.6 197.3 128 196.6 128.1 196.2 128.7 195.5 128.6 195 129.3 194.6 130.5 194.8 131 194.6"/><polyline class="b" points="237.5 242.5 237.4 243.6 237.8 244.2 238.5 244.5 239.5 244.5 239.8 243.5 239.5 242.8 238.9 242.3 238 242"/><line class="b" x1="265" y1="130.9" x2="265.5" y2="135.9"/><polyline class="b" points="112.5 343.4 113.2 344.9 113.8 345.4 115 345.3 115.3 344.7 115.5 344 115.4 343.2 115 342.4 114.4 342.6 114.1 342.7 113.8 342.7"/><polyline class="b" points="253.2 432.3 250.6 430.9 250.3 431.3 249.8 432.3 249.5 432.6 249.7 433.4 250.1 433.8 251.2 434.3 251.7 434 252.1 433 252.5 432.6"/><polyline class="b" points="524.6 484.6 524.8 485.4 525.5 487.1 525.5 488.1 524.1 488.3"/><polyline class="b" points="439.1 420.1 440.2 421.2 440.4 421.6 440.1 422.1 439.1 422.6 438.7 422.9 437.6 421.8 437.1 421.6 437.8 420.6 438.3 420.2 438.9 419.9"/><polyline class="b" points="496.1 88.4 496.9 88.7 497.9 88.7 498.6 89 498.8 90.2 498.3 90.6 497.8 90.7 496.6 90.7"/><polyline class="b" points="288.5 375.2 286.2 375.7 286.2 376.4 285.9 377 285.2 378.1"/><polyline class="b" points="138.3 222.8 137.8 222.5 137.3 222.5 136.8 222.6 136.3 222.8 135.8 223.9 135.8 224.5 136.1 225.1 136.7 225.5 137.4 225.6 138.8 225.3"/><polyline class="b" points="279.2 463.3 279.9 462.9 280.2 462.3 280.5 461.1 279.9 460.6 279.3 460.4 278.2 460.3 277.8 460.7 277.5 461.2 277.2 462.3"/><polyline class="b" points="231.2 63.9 231.6 64.2 232 64.1 232.4 64 232.7 63.9 233.1 64.4 233.3 64.9 233.6 66.2 231.9 66.8 231.2 66.7 230.7 65.4"/><polyline class="b" points="351.9 336.4 352.4 336.3 352.6 336 352.7 335.5 352.9 335.2 352.3 334.6 351.6 334.4 350.9 334.4 350.2 334.6 349.9 335.1 349.9 336.7"/><polyline class="b" points="165.3 214.6 166.9 215.7 167.3 216.2 167.1 217 166.6 217.4 166 217.5 165.3 217.5"/><polyline class="b" points="275 150.4 275 151 274.5 152.6 273.3 152.6 272.7 152.4 272.2 152.1 271.9 151.7 271.9 151.3 272.6 149.9 273.1 149.6 273.8 149.7 274.5 150.1"/><polyline class="b" points="555.6 457.8 554.8 457.9 554.2 458.1 553.8 458.6 553.6 459.3 553.7 459.9 554.6 460.7 554.8 461.2 555.5 460.6 556 459.9 556.1 459.2 555.8 458.3"/><polyline class="b" points="234.7 263.8 235.8 263.6 236.2 263.1 236.2 262.4 236 261.5 235.7 261.5 234.7 261.8"/><line class="b" x1="384.9" y1="123.4" x2="384.9" y2="127.9"/><polyline class="b" points="404.1 535 405.1 534.4 405.4 533.9 405.4 533.3 405.1 532.6 404.7 532.3 404.2 532.2 403.6 532.3"/><polyline class="b" points="541.8 283.2 541.8 284.4 542 285 542.4 285.5 542.9 285.5 544.4 285 544.6 284.5 544.6 284 544.6 283.5 544.3 283"/><polyline class="b" points="245 58.4 244.2 58.7 243.8 59.1 243.7 59.7 243.8 60.4 244 61 244.3 61.4 244.8 61.5 245.5 61.2"/><polyline class="b" points="265.5 397.4 265.9 397.8 266 398.3 265.9 398.7 265.5 399.1 264.9 399.4 264.3 399.4 263.7 399.3 263.2 398.9 263 398.4 263.2 397.6 263.2 397.1"/><polyline class="b" points="440.9 408.4 440.7 408.8 440.6 409.9 440.4 410.4 438.4 410.4 438.2 409.6 438.1 408.9 438.2 408.1 438.4 407.4"/><polyline class="b" points="412.1 241.3 411.7 242.5 410.1 244.6 409.6 245.8"/><polyline class="b" points="379.7 120.6 380.7 120.1 381.1 119.3 381.2 117.6 380 117 376.7 116.6"/><polyline class="b" points="570.8 404.1 570.8 405.3 570.6 405.9 570.3 406.3 569.5 406.4 568.9 406.2 568.6 405.7 568.5 404.9 568.7 404.1 569.1 403.7 569.6 403.6 570.3 403.9"/><polyline class="b" points="232 268.8 232.5 268.6 232.9 268.3 233.3 268 233.5 267.5 233.3 266.7 233 266.2 232.5 265.7 231.7 265.5"/><polyline class="b" points="398.4 425.9 397.6 426.7 397.4 427.3 397.5 428 398 428.3 400.2 429 400.6 426.6"/><polyline class="b" points="152 104.9 152.1 103.4 152.5 102.7 153.4 102.3 154 102.7 154.4 103.3 154.5 103.9 154.1 105.1 154.2 105.4 154.8 105.7"/><polyline class="b" points="453.6 395.6 453.9 394.6 453.9 394.2 453.7 393.7 453.1 393.3 452.4 393.1 451.1 393.1"/><polyline class="b" points="224 264.3 224.2 265.7 225.9 269.5 226.4 270 226.5 270.4 226.2 270.7"/><polyline class="b" points="431.6 518.3 433.9 518.3 434.6 518.6 434.6 519.3 434.2 520.5 434.1 521 433.5 520.9 432.3 520.2 431.6 520"/><polyline class="b" points="411.6 439.1 412.3 439.4 412.6 439.9 412.7 440.5 412.3 442.1 411.9 445.1"/><polyline class="b" points="194 58.2 194.8 57.8 195.7 57.7 196.6 57.4 196.9 56.4 196.5 55.9 195.9 55.6 195.2 55.5 194.5 55.4 194.3 55.9 194.2 56.3 194.3 56.8 194.5 57.2"/><polyline class="b" points="292.7 394.6 292.5 395.6 291.7 397.4 291.9 398.4 291 398.9 290.1 398.8 289.4 398.3 288.7 397.6"/><polyline class="b" points="146.3 174.3 146.3 176.1 146.5 176.6 148 176.6 148.6 176.3 148.8 175.3"/><polyline class="b" points="156.3 124.9 156.9 124.6 157.2 124.1 157.2 122.6 155.3 122.6"/><polyline class="b" points="454.9 234.3 454.2 235.5 453.3 235.7 451.4 235"/><polyline class="b" points="190.5 55.2 190.6 54.5 190.7 54 191.1 53.6 191.8 53.2 192.8 54 193.1 54.4 192.9 55.3 192.5 55.6 191.9 55.7 190.8 55.7"/><polyline class="b" points="112.3 227.8 110.1 227.3 109.4 227.9 109.2 228.4 109.3 229 109.6 229.8 110 230.2 110.5 230.5"/><polyline class="b" points="325.9 368.9 326.1 369.4 326.9 370 327 370.5 326.6 371.2 326.1 371.4 325.4 371.5 324.8 371.8 323.4 369.4"/><polyline class="b" points="221.7 282.2 221.3 282.3 221.1 282.6 220.7 283.2 219 283 218.2 283.1 217.5 283.8 217.6 284.4 218.3 285.5 218.2 286.2"/><polyline class="b" points="255 402.4 255.2 403.1 255 403.6 254.2 404.3 253.4 404.3 252.8 404 252 403.1"/><polyline class="b" points="380.4 324.9 380.1 325.8 380.4 326.4 381.6 327.1 382.7 325.6 382.3 325.1 381.9 324.7 381.4 324.4 380.7 324.4"/><polyline class="b" points="111 116.1 110.3 116.4 109.8 116.8 109.6 117.4 109.5 118.1 110 118.5 110.5 118.7 111 118.7 111.5 118.4 112 117.8 112.1 117.2 111.9 116.7 111.3 116.1"/><polyline class="b" points="459.1 387.4 458.4 387.4 457.9 387.6 456.8 388.3 457.1 388.8 457.1 389.9 457.4 390.4 457.9 390.4 459.1 390.1 459.6 390.4 460 390.2 460.2 389.3 460.6 389.1"/><polyline class="b" points="81.6 404.9 82 405.3 82.1 405.8 82.1 406.7 80.9 407.3 80.3 407.4 79.8 407.4"/><polyline class="b" points="104.3 174.6 103 174.7 102.6 175 102.2 175.8 102.1 176.3 102.2 176.6 102.5 176.7 102.8 176.8"/><polyline class="b" points="416.9 526.3 417.3 525.2 417.5 524.3 417 523.6 415.6 523.3"/><polyline class="b" points="117.8 309.2 118.1 310.9 117.6 311.4 117 311.5 115.8 311.5"/><polyline class="b" points="70.1 428.1 69.9 427 70.1 426.5 70.7 426.3 72.1 426.4 72.2 427.9 71.5 428.4 69.3 428.6"/><line class="b" x1="580.6" y1="475.1" x2="576.6" y2="475.3"/><polyline class="b" points="472.9 405.6 472.3 404.6 471.5 404.2 470.7 404.5 469.8 405.2 470.3 406.1 470.9 406.6 471.7 406.5 472.6 405.9"/><polyline class="b" points="118.8 302.5 118 303.1 117.8 303.7 118.1 304.4 119 305.5 119.6 305.1 120 304.6 120.5 303.5"/><polyline class="b" points="362.9 139.4 362.7 140.5 363.2 141.5 363.8 142.4 364.2 143.4"/><polyline class="b" points="133.8 283 133.8 282.2 133.7 281.8 133.5 281.5 133 281.5 132.5 281.3 132 281.3 131.5 281.5 131.3 282 131.3 282.4 131.4 282.9 131.7 283.5 134.4 283.6 135.8 284 137.1 284.7 136.8 285.1 136.6 285.9 136.3 286.2"/><polyline class="b" points="287.5 240.5 285.8 241.5 285.1 242.2 285 243.3"/><polyline class="b" points="551.6 447.8 550.3 448.4 550.5 449 551.6 450.6 552.5 450.4 553.1 450 553.3 449.3 552.8 448.3"/><polyline class="b" points="171.8 183.8 172.2 183.4 172.3 182.9 172.3 182.3 172.3 181.8 171.1 181.6 170.4 181.9 170 182.7 170 183.8"/><polyline class="b" points="376.2 329.9 376.9 330.6 377.2 331 377.2 331.5 377 332.1 376.1 332.7 375.9 333.2"/><polyline class="b" points="120 199.3 119.1 199.6 118.3 200 118 200.7 118.3 201.8"/><polyline class="b" points="598.3 367.9 598.9 366.9 598.1 366.4 597.4 366.3 596.7 366.6 596 367.2"/><polyline class="b" points="419.9 433.8 419.6 433.6 419.2 433.4 418.4 433.3 418 433.8 417.9 434.4 417.9 435.6"/><polyline class="b" points="440.4 244.3 440.3 244.8 440.9 247.8"/><polyline class="b" points="254 142.9 254 141.7 253.8 141.2 253.2 140.9 252.5 140.8 251.9 141.1 251 142 251.5 142.9 252 143.4 252.6 143.6 253.5 143.1"/><polyline class="b" points="248.7 143.6 248.4 143 248 142.6 247.4 142.4 246.7 142.4 246.4 143.1 246.3 143.6 246.5 144.1 247 144.8 247.6 144.9 248 144.6 248.7 143.9"/><polyline class="b" points="485.6 368.4 483 368.9 482.1 368.7"/><polyline class="b" points="385.9 267.5 386.7 268.4 388.6 271.5 390.2 271.5"/><polyline class="b" points="212.7 151.4 212.2 151.5 211.6 152.3 211.2 152.6 210.7 152.5 209.4 151.4 209.9 151 210.4 150.8 211 150.9 211.5 151.1"/><polyline class="b" points="85.1 407.4 83.8 407.2 83.2 407.7 83.1 409.6"/><polyline class="b" points="416.9 260.8 417 261.9 417.3 262.3 418.3 262.7 418.6 262.9 418.6 263.3 418.6 263.8"/><polyline class="b" points="228.2 262.8 228.6 262.2 228.7 261.8 228.4 261.3 227.7 260.5 226.7 261.2 226.3 261.8 226.5 262.4 227.2 263.3"/><polyline class="b" points="442.1 525 441.9 524 441.4 523.4 440.6 523.2 439.6 523.5"/><polyline class="b" points="363.4 333.4 362.3 333.9 361.9 334.6 362 335.5 362.4 336.4 363 336.4 364.4 335.8 364.3 334.5 364.1 333.9 363.7 333.4"/><line class="b" x1="266" y1="144.4" x2="266.5" y2="147.9"/><line class="b" x1="101.3" y1="306.5" x2="97.8" y2="306.2"/><polyline class="b" points="544.3 304.5 543.8 303.3 543.4 302.8 542.7 302.4 541.9 302.9 541.6 303.6 541.5 305.4 543 305.4 543.7 305.1 544.3 304.7"/><polyline class="b" points="124.3 265.8 124.9 265.2 125.1 264.7 124.9 264.1 124.5 263.5 124.2 263.4 123.8 263.4 123.4 263.4 123.1 263.5 122.6 264.2 122.6 264.9 123.3 266.3"/><polyline class="b" points="167.3 223.8 166.7 222.9 166.1 222.5 165.4 222.6 164.5 223.3"/><polyline class="b" points="122 229.3 122 229.9 121.5 231.6 120.6 231.3 120 230.9 119.8 230.3 120.3 229.3"/><polyline class="b" points="251 265.8 250.7 266.1 250.7 267.1 250.2 267.4 249.6 267.4 249 267.2 247.7 266.5"/><line class="b" x1="130" y1="259" x2="128.3" y2="264.8"/><polyline class="b" points="477.9 293.5 477.1 291.7 476.6 291.5 476.2 291.5 475.8 291.7 475.4 292"/><polyline class="b" points="228 268.3 228.1 269.5 228.4 270 228.7 270.5 227.7 272.7 226.9 273.6 225.7 274.2 224.7 274.5 223.8 274.5 223 274 222.5 273"/><polyline class="b" points="210 34.5 209.3 33.8 208.6 33.4 207.9 33.5 207.2 34.5"/><polyline class="b" points="570.8 398.6 570.9 397.7 570.6 396.9 570 396.4 569.1 396.1"/><polyline class="b" points="354.7 124.6 354.1 125 353.7 125.5 353.5 126.1 353.2 126.6 353.8 127.7 355.6 129.6 355.9 130.9"/><polyline class="b" points="554.8 486.8 553.7 488 553.6 488.5 553.7 489.1 554.8 490.3"/><polyline class="b" points="134 206.1 134.2 207.1 134 207.9 133.4 208.4 132.3 208.6"/><line class="b" x1="581.1" y1="486.3" x2="577.6" y2="486.5"/><polyline class="b" points="367.2 205.6 366.3 206.1 365.5 208 364.7 208.6"/><polyline class="b" points="126.3 288.7 126.5 287.8 126.4 287 125.9 286.6 124.8 286.5"/><polyline class="b" points="96.3 310.5 95.5 310.7 94.9 311.2 94.5 311.9 94.3 312.7"/><polyline class="b" points="355.4 173.6 356.1 174.9 356.5 176.2 356.4 177.5 355.7 178.8"/><polyline class="b" points="103.8 350.7 103.7 352 103.6 352.4 101.8 352.4"/><polyline class="b" points="85.8 57.9 86.4 58.6 88.2 58.8 88.8 59.4"/><polyline class="b" points="366.9 140.4 366.5 141.2 364.4 142.6"/><line class="b" x1="238.2" y1="180.3" x2="236" y2="183.8"/><polyline class="b" points="149.3 198.8 149.5 197.9 149.5 197.5 149.2 197 148.8 196.8 148.4 196.8 148 196.8 147.5 197.1"/><line class="b" x1="580.6" y1="479.1" x2="577.1" y2="479.3"/><polyline class="b" points="199 26 199 24.3 198.5 23.8 198 23.8 197.3 24"/><polyline class="b" points="397.4 421.4 398.1 421.8 399.7 421.8 400.4 422.2 400.6 422.5 400.6 423.6"/><polyline class="b" points="362.7 112.1 364.5 112.5 365.2 113 365.7 113.9"/><polyline class="b" points="152.5 187.6 152.3 187 151.9 186.6 151.4 186.4 150.8 186.3 150.4 187.1 150.3 187.6 150.6 188.1 151.3 188.8 151.7 188.7 152.5 187.8"/><polyline class="b" points="242.7 112.6 240 114.1 240.2 114.5 240.2 115.9"/><polyline class="b" points="400.4 418.6 401.2 420 401.6 420.4 402.9 420.3 403.4 420 403.9 419.6 403.8 418.9 402.6 417.1 401.9 417.1 401.3 417.3 400.8 417.7 400.4 418.4"/><polyline class="b" points="106.3 263.8 106.9 263.5 107.5 263.5 107.9 263.8 108.2 264.3 108.4 265 108.2 265.6 107.7 266.1 107 266.5 106.6 266.4 106.4 266.1 106.3 265.7 106.3 265.3"/><polyline class="b" points="256 117.9 256.5 118.7 256.7 119.6 256.7 121.4 255.5 121.5 254.8 121.5 254.5 121.1 254.2 120.4"/><polyline class="b" points="282 421.1 282.2 420.9 282.4 420.6 282.5 420.2 282.4 419.8 281.8 419.4 281 419.3 280.2 419 280 418.1"/><polyline class="b" points="375.7 329.7 374.6 331.1 374.7 331.8 375.7 332.4"/><polyline class="b" points="117.3 276.2 117.3 277.9 116.9 278.4 115.8 278.5"/><polyline class="b" points="271.2 59.4 270.7 61.4 270.7 62.2 271 62.6 271.6 62.7 272.2 62.7"/><polyline class="b" points="145.5 189.1 145.6 188.1 145.3 187.4 144.7 186.9 143.8 186.6"/><polyline class="b" points="391.4 242.5 390.2 241.4 389.5 240.9 388.7 240.8"/><polyline class="b" points="110.5 234.3 110 235.7 109.6 236.2 108.8 236.5"/><polyline class="b" points="421.6 248.5 420.8 248.8 420.2 249.3 419.9 250 419.6 250.8"/><polyline class="b" points="221.2 31.7 220.1 31.7 219.5 31.8 219 32.2 219 32.7 219.7 34 220.5 33.9 221.1 33.8 221.6 33.4 222 32.7"/><polyline class="b" points="397.9 422.4 397.9 423.7 398.1 424.9 398.8 425.8 400.1 426.4"/><polyline class="b" points="294.2 180.8 294.6 181.2 294.8 182.2 295 182.6 297.2 182.3"/><polyline class="b" points="97.8 278.5 98.5 278.3 99 277.8 99.3 277.2 99.8 276.7 99.2 276.2 98.6 276.1 97.9 276.2 97.2 276.1 97.3 277.6 97.6 278"/><polyline class="b" points="199.8 66.4 201.2 66.7 201.9 66.5 202.5 65.9 202.1 64.9 201.5 64.5 200.7 64.6 199.8 64.9"/><polyline class="b" points="286 179.1 285.2 180 285 180.9 285.1 181.8 285.7 182.6 286.4 182.4 286.6 182 286.7 181.6 287 181.3"/><polyline class="b" points="194.5 59.7 194.2 58.7 193.7 58.2 192.9 58.2 192 58.8 192.3 60.9"/><polyline class="b" points="373.7 197.1 376.1 197.8 376.7 198.4 376.6 200.4 376.4 201.1"/><polyline class="b" points="687.5 256.3 688 256.3 688.4 256.1 688.7 255.8 688.7 255.3 688.6 254.8 688.3 254.6 687.9 254.5 687.5 254.5"/><polyline class="b" points="112.5 231 112.1 231.8 112 232.6 112.3 233.1 113.3 233.5"/><polyline class="b" points="269.5 54.2 268.8 55.2 268.6 55.8 269.1 56.3 270.3 57 270.9 56.1 271 55.5 270.7 54.9"/><line class="b" x1="333.7" y1="176.6" x2="333.9" y2="179.8"/><polyline class="b" points="552.6 444.6 552.8 443.9 553.3 443.3 553.1 442.8 552.3 442.1 552 441.7 550.9 442.3 550.5 442.7 550.2 443.4 550.3 443.7 550.9 444.2 551.1 444.6"/><polyline class="b" points="601 414.4 600.8 414.4 600.3 414.6 600 414.6 600.1 415.2 601.1 416.9 603.6 416.2 604.5 416.4"/><polyline class="b" points="300.4 443.8 301 444.6 301.2 445.4 301 446.1 300.2 446.8"/><polyline class="b" points="380.7 132.9 380.6 135.1 380.4 135.9 378.2 135.9"/><polyline class="b" points="286 378.4 286.6 379.1 287.5 379.2 289.2 379.2 289.2 378.6 289.9 377.1 289.6 376.5 289 376.1 288.7 375.5 289.2 374.7"/><polyline class="b" points="114.3 52.5 113.8 53 113.1 53.4 112.7 54 113.3 54.9"/><polyline class="b" points="581.3 409.4 581.7 410.1 583.6 411.8 583.9 411.1 584.8 409.9 584.8 409.1"/><polyline class="b" points="129.8 264.5 130.5 264.5 131.1 264.8 131.4 265.3 131.5 266 131.2 266.4 130.7 266.5 129.8 266.5"/><polyline class="b" points="219.7 264.5 219.1 265.1 218.9 265.8 219 266.6 218.8 267.4 219.4 267.5 220.3 267.9 220.7 268"/><polyline class="b" points="132 153.4 132 154.2 132.3 155 133.3 156.4 133.9 156.1 134.4 155.7 134.8 155.2 135 154.6 134.4 154.4 134.1 154.3 133.8 154.4"/><polyline class="b" points="237.5 69.2 238.1 68.7 238.3 68.2 238.1 67.7 237.7 67.2 237.2 66.8 236.6 66.7 236.1 66.8 235.5 67.2"/><polyline class="b" points="589 158.4 588.3 158.5 587.6 158.9 587.2 159.4 586.7 161 586.1 161.6 583.9 162.6 583.8 163 583.8 163.4 583.8 163.8"/><polyline class="b" points="568.8 67.4 568.7 69.1 568.3 69.9 567.6 70.4"/><polyline class="b" points="482.1 435.3 479.4 435.4 478.5 435.8 478.4 436.1 478.4 437.3"/><polyline class="b" points="545.1 292 545.3 293 544.9 293.4 543.3 294 542.9 293.5 542.3 291.9 543.6 291.3 544.3 291.3 545.1 291.7"/><polyline class="b" points="264 151.4 263.3 151.9 263 152.6 263 153.3 263.5 154.1"/><polyline class="b" points="535.3 288 534.8 287 534.2 287 533.7 287.2 532.8 288 533.3 289"/><polyline class="b" points="467.6 299.7 468.3 298.7 469.1 298.3 469.9 298.5 471.1 299.2 471.1 299.7 470.8 300 470.1 300.5"/><polyline class="b" points="117 47.2 117.5 47.8 118 48 118.5 47.9 119.3 47.5"/><polyline class="b" points="598 411.4 596.3 411.4 596.3 411.9 595.8 413.4 594.5 413.4"/><polyline class="b" points="106.3 77.4 106 79 106.2 79.4 106.5 79.6 106.9 79.7 107.3 79.7"/><polyline class="b" points="259.2 152.4 258.5 152.2 257.8 151.1 257.4 150.7 257.9 149.9 258.5 149.4 259.2 149.3 259.9 149.7 260.3 150.2 260.3 150.8 260 151.3 259.5 151.9"/><polyline class="b" points="399.1 229.3 398.7 228.6 398.1 228.1 397.5 227.7 396.6 227.5"/><polyline class="b" points="491.8 428.4 492.5 428.9 492.8 429.6 493.1 430.3 493.1 431.1"/><polyline class="b" points="113 199.6 112.9 200 112.1 200.8 112.7 201.4 113.3 201.8 114 201.8 114.8 201.3"/><polyline class="b" points="552.8 384.9 552.6 384 552.1 383.5 551.4 383.4 550.6 383.4"/><polyline class="b" points="139.3 280.7 139.3 284.3 140 287.7"/><polyline class="b" points="210.7 34.7 210.1 35.2 209.4 35.6 208.6 35.8 207.7 35.7"/><line class="b" x1="580.6" y1="482.3" x2="577.6" y2="482.3"/><polyline class="b" points="153 178.6 152.7 178.4 151.5 178.3 151.3 178.7 151.3 179.8"/><polyline class="b" points="411.6 275.7 411.7 275.2 411.6 274.8 411.3 274.5 410.6 274.5 410 274.6 409.7 274.9 409.6 275.3 409.6 275.7"/><polyline class="b" points="362.2 111.4 362.2 112.4 361.3 114.3 361.7 115.4"/><polyline class="b" points="290.7 357.4 291.4 357.8 292.3 359.2 293.2 359.4"/><polyline class="b" points="486.9 417.1 486.9 418 486.7 418.7 486.2 419.3 485.3 419.6 484.6 419.2 484.2 418.6 483.9 417.9 483.9 417.1"/><polyline class="b" points="263.7 94.9 262.9 95.1 262.3 95.4 262 96 262 96.9"/><polyline class="b" points="296 355.2 295.8 357.8 295.4 359 294.7 360.2 294.5 360.4 294.2 360.4 293.9 360.4 293.7 360.4"/><line class="b" x1="591" y1="92.4" x2="590.5" y2="96.9"/><polyline class="b" points="545.8 322.5 546.1 323.8 545.9 324.3 545.1 324.7"/><polyline class="b" points="318.7 390.6 318.3 391.2 317.1 391.8 316.6 392.2 317.4 393.4 317.9 393.9 318.7 394.1"/><polyline class="b" points="420.9 521.3 420.1 521.6 419.6 522.1 419.4 522.7 419.4 523.5"/><polyline class="b" points="453.1 420.6 452.5 421.3 452.4 421.8 452.8 422.1 453.6 422.3 455.1 422.4"/><polyline class="b" points="603 456.1 603.7 456.4 604.2 456.9 604.7 457.4 605 458.1"/><polyline class="b" points="145.5 104.4 144.6 103.5 144.1 103.4 143.4 103.8 142.9 105.2 142.3 105.7"/><polyline class="b" points="585.3 453.6 587.3 455.2 588 455.6"/><polyline class="b" points="535.8 288.5 535.5 289.2 534.9 289.5 533.6 289.5"/><polyline class="b" points="552.8 303.5 553.4 303.8 553.9 305 554.4 305.4 553.8 306.2 553.1 306.5 551.6 306.5"/><polyline class="b" points="547.8 379.1 547.8 380.2 547.6 380.9 547 381.2 545.8 380.9"/><polyline class="b" points="491.1 429.4 490.7 430 490.6 430.5 490.8 431 491.4 431.9 492.6 431.4"/><polyline class="b" points="559.1 75.4 558.8 76.6 558.1 77.6 557.3 77.4 555.9 76.7 555.1 76.7"/><polyline class="b" points="367.9 210.3 367.7 211.1 367.7 211.8 367.9 212.4 368.4 213.1"/><polyline class="b" points="243 190.6 242.8 191.2 242.7 192 242.4 192.6 241.7 193.1"/><polyline class="b" points="375.7 417.6 375.2 418.5 374.6 418.6 373.4 417.9"/><polyline class="b" points="391.4 266 391.7 266.6 391.8 267.3 392 267.9 392.7 268.3"/><polyline class="b" points="235.7 196.3 235.7 196.9 235.8 197.6 235.6 198.1 234.7 198.3"/><polyline class="b" points="568.8 396.4 568.2 397.6 568.3 398.1 569.1 398.6"/><polyline class="b" points="220.7 266.8 220.7 268.9 220.9 269.9 221.9 270.7 222.8 270.6 223.6 270.2 224.3 269.7 225 269"/><polyline class="b" points="126.8 154.9 126.6 155.5 126.5 156.2 126.1 156.7 125.3 156.9"/><polyline class="b" points="235 67.7 235.8 69 236.4 69.5 237.2 69.7"/><polyline class="b" points="372.7 417.6 373.1 417.1 373.2 415.9 373.4 415.4 375.4 416.4 376.2 416.4"/><polyline class="b" points="623.5 452.6 624.1 453.1 624.5 453.7 625 455.1"/><polyline class="b" points="271.5 60.4 272.6 60.5 272.9 60.7 273.2 61.3 273.2 61.6 273.2 61.9"/><polyline class="b" points="481.1 369.2 481.1 370.3 481.9 374.2 483.3 373.6 485.9 373.5 487.1 373.2"/><polyline class="b" points="375.9 256 375.3 256.4 374.8 256.9 374.6 257.5 374.7 258.3"/><line class="b" x1="579.6" y1="471.1" x2="577.1" y2="471.3"/><polyline class="b" points="407.9 237.5 407.6 238.1 407.1 239.3 406.6 239.8"/><polyline class="b" points="605.8 444.3 606.9 446.2 607.5 446.6"/><polyline class="b" points="187.3 84.4 188 83.4 187.6 82.5 186.9 82.2 185.3 82.2 184.8 82.7 184.7 84.4 183.8 84.7"/><polyline class="b" points="124.8 51.7 125.8 51.7 126.2 52 126.6 52.5 126.4 53 126.2 53.4 125.3 54 124.8 53.7 124.4 53.3 124.2 52.8 124.5 52.2"/><polyline class="b" points="407.1 269.3 406.5 269.2 405.6 270 405.1 270.2"/><polyline class="b" points="137.8 212.6 136.6 212.6 136.1 213 136 213.8 136.3 214.8"/><polyline class="b" points="304.9 393.6 304.7 394.1 304.7 394.8 304.5 395.3 303.7 395.4"/><polyline class="b" points="198.8 33 198.8 32.6 198.7 32.3 198.5 32 198.2 31.7 197.7 31.8 196.6 32.8 196.8 33.3 196.8 34 196.9 34.5 197.8 34.7"/><polyline class="b" points="258.7 134.9 258.2 135.3 256.8 135.9 256.5 136.6"/><polyline class="b" points="147 197.6 146.7 198.7 146.9 199.2 147.8 199.3"/><polyline class="b" points="102.8 344.9 102.2 345.4 99.9 345.7 100.2 344.8 100 343.5 100.3 342.9 100.8 342.6 101.9 342.7 102.4 342.6 103 343.1 102.9 343.6 102.8 344.2 103.1 344.7"/><polyline class="b" points="380.7 250.3 381.2 250.5 382 251.4 382.7 251.5"/><polyline class="b" points="382.2 171.3 381.8 172.3 380.6 174 380.4 175.1"/><polyline class="b" points="588.5 156.4 589.3 157.1 589.4 158 589 159.9"/><polyline class="b" points="223.2 239.3 221.5 239.3 221 239.5 220.8 239.9 220.7 241.3 220.1 241.2 218.2 241.5"/><polyline class="b" points="352.9 170.1 353.8 171.2 354.4 171.7 355.2 171.8"/><polyline class="b" points="575.1 156.6 573.9 156.6 571.7 157.1 570.6 157.1"/><polyline class="b" points="297.2 196.3 297.1 196.7 296.5 197.2 296.4 197.6 295.2 197.6"/><polyline class="b" points="481.9 407.9 482.1 408.2 482.1 408.8 482.2 409.2 481.4 409.4 479.8 409.4 479.1 409.7 479 408.9 478.6 407.2 478.9 406.4"/><polyline class="b" points="69.3 416.4 68.3 416.4 67.9 416.7 67.5 417.2 67.8 417.9 69.3 419.6"/><polyline class="b" points="581.1 163.6 581.4 163.7 581.5 163.8 581.7 164 581.7 164.7 581.5 165.1 581.2 165.4 581.1 165.8"/><line class="b" x1="652" y1="297.7" x2="649.5" y2="297.2"/><polyline class="b" points="380.7 265 379.4 265.6 379.4 266.8"/><polyline class="b" points="188.5 49.2 188.8 49.9 188.8 50.5 188.4 51 187.8 51.5"/><polyline class="b" points="372.2 195.6 371.3 196.2 370.9 196.9 370.7 197.8 370.7 198.8"/><polyline class="b" points="420.4 434.3 420.8 434.8 420.9 435.3 420.8 435.8 420.4 436.3 418.6 436.3"/><polyline class="b" points="267.5 51.2 267.8 52.3 267.6 52.8 267 53.2"/><polyline class="b" points="209.2 73.4 209.8 73.6 210.1 74 210.4 74.8 210.8 75 211.4 74.6 211.7 74.9"/><polyline class="b" points="128 87.7 127.8 88.4 128 88.9 128.5 89.4 128.8 89.9"/><polyline class="b" points="246 189.6 245.3 192 245.2 192.8"/><polyline class="b" points="586.6 149.9 587.2 150.9 587.1 151.9 586.6 152.9 586.6 153.9"/><polyline class="b" points="111.5 102.2 110.5 102.5 110.1 103.2 110.3 104.9"/><polyline class="b" points="294.2 417.6 294.6 417.4 295.6 417.5 296.1 417.1 297.8 418.7 297.5 419.6 297.4 421.7 297 422.1 296.5 422.3 296 422.4 295.5 422.4"/><polyline class="b" points="439.6 432.1 439.7 431.7 440.6 430.9 441.5 431.3 442.2 431.8 442.3 432.6 441.6 433.6"/><polyline class="b" points="107.8 77.4 108.2 77.9 108.3 78.3 108.1 78.7 107.5 79.2"/><polyline class="b" points="254.5 147.9 254 148.4 253.5 148.6 252.2 148.6"/><polyline class="b" points="116.3 309.2 115.7 309.5 115.4 309.8 115.3 310.3 115.5 311"/><polyline class="b" points="584.6 444.6 585.3 445.6 585.8 446 586.3 446.3"/><polyline class="b" points="516.8 482.1 515.6 482.4 515 482.8 514.6 483.3"/><polyline class="b" points="281.7 421.6 281.1 422.1 280.5 422 279.8 421.7 279.2 421.6 279.1 420.7 279.1 420.3 279.5 419.9"/><polyline class="b" points="250.5 129.1 250.3 129.7 249.2 130.9"/><polyline class="b" points="594 437.1 594.6 437.4 595.5 438.3 596 438.6"/><polyline class="b" points="250.2 255.8 248.7 255.4 247.2 254.8"/><polyline class="b" points="563.6 398.1 563.8 399.1 563.7 399.8 563.1 400.2 562.1 400.1"/><polyline class="b" points="377.7 259.5 377.2 259.8 376.2 260.4 375.7 260.5"/><polyline class="b" points="98.1 181.1 97.8 182 97.7 182.8 98.1 183.4 99.3 183.6"/><polyline class="b" points="595.5 442.6 596.1 442.9 596.9 443.9 597.5 444.1"/><polyline class="b" points="382.9 179.1 382.6 180.2 382.3 180.6 381.7 180.8"/><polyline class="b" points="283.7 94.7 282.9 95.5 282.7 96 283 96.7"/><polyline class="b" points="139.8 95.2 139.4 95.5 139.2 96 139 96.9 139.5 97.4 140 97.6 141.3 97.7"/><polyline class="b" points="605.8 452.8 607.1 454.5 607.8 454.8"/><polyline class="b" points="410.6 423.4 410.1 423.4 409.2 423 408.6 423.2 408.3 423.5 407.9 424.9 408.4 425.3 410.3 425.8 411.1 425.2 411.4 424.7 411.4 424.1"/><polyline class="b" points="622.5 447.1 623 448.6 623 449.1"/><polyline class="b" points="135.3 258.8 134.7 258.5 134.3 258.6 133.9 258.8 133.5 259.3"/><polyline class="b" points="576.1 455.6 575.9 456.1 575.5 456.4 575.1 456.6 574.6 456.6"/><polyline class="b" points="242.5 136.1 241.9 137 241.7 137.5 242 138.1"/><polyline class="b" points="293 354.4 293.6 354.9 293.8 355.4 293.7 355.9 292.8 356.7 292.7 357.6 292.5 357.9"/><polyline class="b" points="385.9 177.8 386.3 179.1 386.4 179.7 386.2 180.3"/><polyline class="b" points="587.5 442.1 588.1 442.3 588.8 443.1 589.3 443.3"/><polyline class="b" points="135.3 261.3 135.3 260.7 135.2 260.5 135 260.3 134.8 260.2 134.5 260.3 134.3 260.4 134.3 260.8"/><polyline class="b" points="243.7 177.8 243.3 177.8 242.7 177.7 242.3 177.7 242 178.3"/><polyline class="b" points="427.9 540 429 539.2 429.8 539 430.4 539.4 430.9 540.5"/><polyline class="b" points="181.3 84.4 182 84.9 182.3 85.4 182.5 86.1 182.5 86.9"/><polyline class="b" points="466.9 393.4 466.7 393.8 466.6 395.2 467.2 395.4 468.5 395.4 469.1 395.5 469.3 394.9 469.4 393.1"/><polyline class="b" points="129.3 146.4 129.3 146.9 128.8 148.4"/><polyline class="b" points="593.5 445.6 593.8 446.1 594.7 447 595 447.6"/><line class="b" x1="332.7" y1="147.9" x2="332.7" y2="149.9"/><polyline class="b" points="214.7 298.2 215.4 298.5 216.2 298.5 216.8 298.7 217 299.7"/><polyline class="b" points="295.7 249.3 295.7 249.8 296.5 251.3"/><polyline class="b" points="594 409.1 594 410.6 593.8 411.1"/><polyline class="b" points="164.8 206.3 164.8 206.8 164.9 207.3 165.2 207.5 165.8 207.6"/><polyline class="b" points="270.7 126.9 269.9 127.4 269.5 128.1 269.6 128.8 270.2 129.6"/><polyline class="b" points="293 247 293.1 247.6 293.5 248 293.9 248.3 294.5 248.5"/><polyline class="b" points="474.9 292.5 475.5 294 475.9 294.5 476.2 294.3 477 294.2 477.4 294"/><polyline class="b" points="242.5 190.1 241.6 189.8 239.6 189.8 238.7 189.3"/><polyline class="b" points="385.9 235.5 385.5 235.7 385.1 236 384.9 236.3 385 237.6 384.6 238.1 383.4 238.5 383.2 237.9 383.1 237.6 383.2 237.3"/><polyline class="b" points="242 113.4 242.5 114.3 242.6 114.8 242.2 115.4"/><polyline class="b" points="168.5 192.3 168.9 192 168.8 191.2 169 190.8 170.1 190.7 170.8 191.1 171.1 191.8 171 192.8"/><polyline class="b" points="447.9 403.4 448.4 403.6 449.6 403.4 450.1 403.6 450.3 404.5 449.9 406.2 450.1 407.1"/><polyline class="b" points="604.8 464.3 606.3 465 606.5 465.6"/><polyline class="b" points="378.9 414.4 379.4 414.6 379.9 414.6 380.4 414.6 380.9 414.4"/><polyline class="b" points="258.7 104.7 257.5 104.7 256.9 105.2 256.7 106 257 107.2"/><line class="b" x1="124" y1="151.9" x2="123.8" y2="153.9"/><polyline class="b" points="136.8 312.2 137.8 311.4 138.8 311.6 140.8 312.5"/><polyline class="b" points="596.3 450.8 597.5 452.3 598 452.6"/><polyline class="b" points="292.7 240.3 293.1 240.7 294 242"/><polyline class="b" points="409.6 240.8 408.8 242.2 408.9 242.8"/><polyline class="b" points="116.8 370.7 117.3 371.7 117.2 372 117.1 372.2 116.8 372.3 116.5 372.4"/><polyline class="b" points="592 372.2 592.1 372.7 592 372.9 591.8 373.2 591 373.2"/><polyline class="b" points="636.5 295.2 636 295.5 636 295.9 636 296.3 636 296.7"/><polyline class="b" points="136.3 161.4 136.3 160.8 136.2 160.6 136 160.4 135.3 160.4"/><polyline class="b" points="374.4 107.2 374.7 107.5 374.9 108 374.9 108.9"/><polyline class="b" points="112.8 198.8 113.4 199.2 114 199.5 115.3 199.6"/><polyline class="b" points="562.1 398.1 561.6 398.4 561.3 398.7 561.1 399.1 561.1 399.6"/><polyline class="b" points="520.1 465.3 519.1 465.3 518.7 465.5 518.3 465.8"/><polyline class="b" points="214.7 74.9 215 75.4 215.4 75.5 215.8 75.4 216.2 75.4"/><polyline class="b" points="271.2 129.6 270.7 129.8 270.2 130.7 269.7 130.9"/><polyline class="b" points="596.3 417.6 596 418.1 596.1 419.2 595.8 419.6 594.5 419.1"/><polyline class="b" points="140.8 95.2 141.8 96.2 142 96.7"/><polyline class="b" points="443.9 412.1 444 413 444.8 414.5 444.8 415.5 444.5 415.8 444.1 416 443.1 416.1"/><polyline class="b" points="285.2 246.3 285.7 246.5 285.9 246.8 286 247.8"/><polyline class="b" points="244.5 137.6 244 138.4 243.3 138.8 241.7 138.9"/><polyline class="b" points="118.3 52.5 117.8 52.7 117.7 53.1 117.8 53.5 117.8 53.9"/><polyline class="b" points="175.3 171.3 173.9 171.8 173.5 172.1"/><polyline class="b" points="589.3 404.9 589.6 405.3 589.8 405.7 590 406.2 590.5 406.4"/><polyline class="b" points="468.4 292 468 292.4 467.9 292.8 467.9 293.7"/><polyline class="b" points="591 439.6 591.5 439.8 592.1 440.5 592.5 440.6"/><polyline class="b" points="109.5 277 109.9 277.4 110 277.8 110 278.7"/><polyline class="b" points="220.7 262.8 221 263.3 221.3 263.5 222.2 263.5"/><polyline class="b" points="257 132.6 257.6 132.8 257.7 133.2 257.7 133.7 258 134.1"/><line class="b" x1="379.9" y1="176.1" x2="379.7" y2="177.8"/><line class="b" x1="618.5" y1="447.6" x2="619.3" y2="449.3"/><polyline class="b" points="266.2 122.6 265.7 122.8 265.2 123.7 264.7 123.9"/><polyline class="b" points="372.9 335.4 372.4 334.4 371.7 334.4"/><polyline class="b" points="462.1 226.3 460.3 226.4 459.5 226.8 458.9 227.5"/><polyline class="b" points="246.7 255 246.3 255.4 245.7 256.3 245.2 256.5"/><polyline class="b" points="138.5 213.3 138.5 214.2 138.3 214.6 137.8 214.8"/><polyline class="b" points="243 135.6 243.6 135.8 243.7 136.2 243.7 136.7 244 137.1"/><polyline class="b" points="626 447.1 626.5 447.3 626.8 447.7 626.8 448.6"/><polyline class="b" points="398.4 461.8 397.8 462.3 397.1 462.4 395.6 462.3"/><polyline class="b" points="378.4 256 379.9 257.8 379.2 258.4 378.9 258.5"/><polyline class="b" points="176.3 121.4 175.8 121.6 175.7 122 175.8 122.5 175.8 122.9"/><polyline class="b" points="281.5 386.6 281.2 387.7 280.3 388.2 279.4 388.5 278.7 389.1"/><polyline class="b" points="364.4 209.1 364.2 209.7 364.2 210.5 364 211.2 363.2 211.6"/><line class="b" x1="369.2" y1="207.1" x2="368.4" y2="210.1"/><polyline class="b" points="442.1 413.1 442.4 413.7 442.4 415.1 442.9 415.6"/><polyline class="b" points="396.1 271.5 397 271.2 397.3 270.9 397.5 270.5 397.2 270 396.7 269.7 396.2 269.5 395.6 269.5"/><polyline class="b" points="460.9 394.1 461.1 395.3 461.8 395.8 463.6 396.4"/><polyline class="b" points="401.4 265 401.6 265.7 401.7 266.4 401.9 267.1 402.6 267.5"/><line class="b" x1="378.2" y1="177.8" x2="377.7" y2="182.8"/><polyline class="b" points="606.8 422.6 606.4 423 606.1 423.5 605.7 423.8 605 423.6"/><polyline class="b" points="263 122.4 264 121.1 264.4 121.2 264.6 121.5 264.8 121.9 265 122.1"/><polyline class="b" points="375.4 185.1 375.2 185.5 375.1 185.8 375.2 186.2 375.4 186.6 376.2 186.3"/><polyline class="b" points="120 197.8 120 198.8 120.5 199.6 121.8 200.8"/><polyline class="b" points="132.8 297.7 132.8 295.9 132.4 295.3 131 295.5"/><polyline class="b" points="209.2 24.5 209.7 25 210.2 25 211.2 24.5"/><line class="b" x1="266.5" y1="414.9" x2="265.7" y2="416.1"/><polyline class="b" points="368.2 201.3 368.1 202.3 367.4 205.1"/><polyline class="b" points="543.8 327.9 543.5 328.5 543.6 329.1 544.1 330.2"/><polyline class="b" points="112 102.7 112.3 103.2 112.3 104.9"/><polyline class="b" points="226.2 272.2 225.8 272.5 224.7 272.5 224.2 272.7"/><polyline class="b" points="388.2 464.6 388.7 464.3 389.2 464.4 389.7 464.5 390.2 464.6"/><polyline class="b" points="401.6 250.3 401.4 251 400.8 250.8 400.5 250.7 400.1 250.8"/><polyline class="b" points="371.7 207.8 372.4 207.6 372.6 207.9 372.7 208.3 372.6 208.7 372.4 209.1"/><polyline class="b" points="373.2 205.3 372.9 204.5 372.4 204.3 371.2 204.3"/><line class="b" x1="239.5" y1="198.1" x2="239" y2="199.1"/><line class="b" x1="186" y1="49.7" x2="186.5" y2="50.7"/><line class="b" x1="240.7" y1="196.3" x2="240.7" y2="198.8"/><polyline class="b" points="132 119.6 132.3 119.1 132.3 118.7 132 118.4 131.5 118.1"/><line class="b" x1="247.2" y1="182.3" x2="247.2" y2="184.8"/><polyline class="b" points="385.2 181.8 385.7 183.3 385.7 183.8"/><polyline class="b" points="99.6 181.1 99.8 181.6 99.9 182.1 99.8 182.6 99.6 183.1"/><polyline class="b" points="172.3 171.3 172.3 171.9 172.3 172.3 172.6 172.6 173.3 172.6"/><polyline class="b" points="204.7 17.5 204.8 18.8 204.5 19.2"/><polyline class="b" points="399.1 134.4 398.7 134.6 397.6 134.6 397.1 134.9"/><line class="b" x1="264" y1="95.4" x2="264.5" y2="96.2"/><polyline class="b" points="295.2 357.2 294.8 357.2 294.6 357.1 294.5 356.9"/><polyline class="b" points="168.3 101.4 167.8 102.2 167.7 102.7 168 103.2"/><line class="b" x1="461.9" y1="396.9" x2="461.4" y2="397.6"/><polyline class="b" points="219.7 47.2 219.3 47.4 219 47.7 218.7 48.1 218.4 48.5 218.9 49.3 219.5 49.7 220.3 49.7 221.2 49.5 221.2 48.7 221.1 48.1 220.7 47.6 220 47.2"/><polyline class="b" points="73.8 411.4 73.4 411.8 72.8 413.2 72.9 413.9 73.2 414.4 73.8 414.7 74.2 414.8 74.4 414.8 74.5 414.7 75.1 413.7 75.1 412.9 74.8 412.1 74.1 411.4"/><polyline class="b" points="278.7 141.6 278.4 142 278.1 142.4 278 142.9 278 143.4 279 144.4 279.5 144.6 280.3 143.6 280.6 142.8 280.1 142.1 279 141.6"/><polyline class="b" points="78.8 417.1 78.5 417.2 78.2 417.4 78 417.6 77.9 417.9 77.8 418.2 77.8 418.5 77.9 418.9 78.2 419.3 78.6 419.3 79.1 419.5 79.7 419.4 80.3 418.7 80.2 417.8 79.8 417.4 79.1 417.1"/></svg>